<mxfile host="65bd71144e">
    <diagram id="HzTD8S2jFizd6N4z7d2w" name="PÃ¡gina-1">
        <mxGraphModel dx="845" dy="626" grid="1" gridSize="10" guides="1" tooltips="1" connect="1" arrows="1" fold="1" page="1" pageScale="1" pageWidth="827" pageHeight="1169" math="0" shadow="0">
            <root>
                <mxCell id="0"/>
                <mxCell id="1" parent="0"/>
                <mxCell id="hJbZo1aWGCKEWcaqYG83-1" value="" style="rounded=0;whiteSpace=wrap;html=1;strokeColor=#B3B3B3;fillColor=#B3B3B3;" parent="1" vertex="1">
                    <mxGeometry x="200" y="120" width="600" height="1060" as="geometry"/>
                </mxCell>
                <mxCell id="hJbZo1aWGCKEWcaqYG83-9" value="" style="rounded=0;whiteSpace=wrap;html=1;strokeColor=#000000;fillColor=#E6E6E6;" parent="1" vertex="1">
                    <mxGeometry x="250" y="250" width="500" height="390" as="geometry"/>
                </mxCell>
                <mxCell id="hJbZo1aWGCKEWcaqYG83-22" value="" style="rounded=0;whiteSpace=wrap;html=1;strokeColor=#000000;fillColor=#FF3399;gradientColor=none;" parent="1" vertex="1">
                    <mxGeometry x="250" y="640" width="500" height="540" as="geometry"/>
                </mxCell>
                <mxCell id="hJbZo1aWGCKEWcaqYG83-23" value="" style="rounded=0;whiteSpace=wrap;html=1;strokeColor=#000000;fillColor=#999999;gradientColor=none;" parent="1" vertex="1">
                    <mxGeometry x="270" y="650" width="450" height="40" as="geometry"/>
                </mxCell>
                <mxCell id="hJbZo1aWGCKEWcaqYG83-25" value="" style="rounded=0;whiteSpace=wrap;html=1;" parent="1" vertex="1">
                    <mxGeometry x="300" y="660" width="260" height="20" as="geometry"/>
                </mxCell>
                <mxCell id="hJbZo1aWGCKEWcaqYG83-35" value="" style="group" parent="1" vertex="1" connectable="0">
                    <mxGeometry x="200" y="120" width="600" height="140" as="geometry"/>
                </mxCell>
                <mxCell id="hJbZo1aWGCKEWcaqYG83-2" value="" style="rounded=0;whiteSpace=wrap;html=1;strokeColor=#000000;fillColor=#FF8000;" parent="hJbZo1aWGCKEWcaqYG83-35" vertex="1">
                    <mxGeometry width="600" height="130" as="geometry"/>
                </mxCell>
                <mxCell id="hJbZo1aWGCKEWcaqYG83-32" value="" style="endArrow=none;html=1;rounded=0;exitX=0;exitY=0;exitDx=0;exitDy=0;entryX=1;entryY=1;entryDx=0;entryDy=0;" parent="hJbZo1aWGCKEWcaqYG83-35" source="hJbZo1aWGCKEWcaqYG83-2" target="hJbZo1aWGCKEWcaqYG83-2" edge="1">
                    <mxGeometry width="50" height="50" relative="1" as="geometry">
                        <mxPoint x="20" y="20" as="sourcePoint"/>
                        <mxPoint x="120" y="70" as="targetPoint"/>
                    </mxGeometry>
                </mxCell>
                <mxCell id="hJbZo1aWGCKEWcaqYG83-34" value="" style="endArrow=none;html=1;rounded=0;exitX=0;exitY=1;exitDx=0;exitDy=0;entryX=1;entryY=0;entryDx=0;entryDy=0;" parent="hJbZo1aWGCKEWcaqYG83-35" source="hJbZo1aWGCKEWcaqYG83-2" target="hJbZo1aWGCKEWcaqYG83-2" edge="1">
                    <mxGeometry width="50" height="50" relative="1" as="geometry">
                        <mxPoint x="10" y="10" as="sourcePoint"/>
                        <mxPoint x="610" y="140" as="targetPoint"/>
                    </mxGeometry>
                </mxCell>
                <mxCell id="hJbZo1aWGCKEWcaqYG83-4" value="" style="rounded=0;whiteSpace=wrap;html=1;" parent="1" vertex="1">
                    <mxGeometry x="340" y="155" width="330" height="60" as="geometry"/>
                </mxCell>
                <mxCell id="hJbZo1aWGCKEWcaqYG83-33" value="" style="group" parent="1" vertex="1" connectable="0">
                    <mxGeometry x="210" y="130" width="100" height="50" as="geometry"/>
                </mxCell>
                <mxCell id="hJbZo1aWGCKEWcaqYG83-3" value="" style="rounded=0;whiteSpace=wrap;html=1;strokeColor=#000000;fillColor=#99CCFF;" parent="hJbZo1aWGCKEWcaqYG83-33" vertex="1">
                    <mxGeometry width="100" height="50" as="geometry"/>
                </mxCell>
                <mxCell id="hJbZo1aWGCKEWcaqYG83-6" value="" style="endArrow=none;html=1;rounded=0;exitX=0;exitY=1;exitDx=0;exitDy=0;entryX=1;entryY=0;entryDx=0;entryDy=0;" parent="hJbZo1aWGCKEWcaqYG83-33" source="hJbZo1aWGCKEWcaqYG83-3" target="hJbZo1aWGCKEWcaqYG83-3" edge="1">
                    <mxGeometry width="50" height="50" relative="1" as="geometry">
                        <mxPoint x="20" y="50" as="sourcePoint"/>
                        <mxPoint x="70" as="targetPoint"/>
                    </mxGeometry>
                </mxCell>
                <mxCell id="hJbZo1aWGCKEWcaqYG83-7" value="" style="endArrow=none;html=1;rounded=0;exitX=0;exitY=0;exitDx=0;exitDy=0;entryX=1;entryY=1;entryDx=0;entryDy=0;" parent="hJbZo1aWGCKEWcaqYG83-33" source="hJbZo1aWGCKEWcaqYG83-3" target="hJbZo1aWGCKEWcaqYG83-3" edge="1">
                    <mxGeometry width="50" height="50" relative="1" as="geometry">
                        <mxPoint x="10" y="60" as="sourcePoint"/>
                        <mxPoint x="110" y="10" as="targetPoint"/>
                    </mxGeometry>
                </mxCell>
                <mxCell id="hJbZo1aWGCKEWcaqYG83-36" value="" style="group" parent="1" vertex="1" connectable="0">
                    <mxGeometry x="250" y="250" width="500" height="210" as="geometry"/>
                </mxCell>
                <mxCell id="hJbZo1aWGCKEWcaqYG83-15" value="" style="rounded=0;whiteSpace=wrap;html=1;strokeColor=#000000;fillColor=#CC99FF;" parent="hJbZo1aWGCKEWcaqYG83-36" vertex="1">
                    <mxGeometry width="500" height="210" as="geometry"/>
                </mxCell>
                <mxCell id="hJbZo1aWGCKEWcaqYG83-16" value="" style="rounded=0;whiteSpace=wrap;html=1;" parent="hJbZo1aWGCKEWcaqYG83-36" vertex="1">
                    <mxGeometry x="30" y="20" width="430" height="20" as="geometry"/>
                </mxCell>
                <mxCell id="hJbZo1aWGCKEWcaqYG83-17" value="" style="rounded=0;whiteSpace=wrap;html=1;" parent="hJbZo1aWGCKEWcaqYG83-36" vertex="1">
                    <mxGeometry x="30" y="50" width="430" height="20" as="geometry"/>
                </mxCell>
                <mxCell id="hJbZo1aWGCKEWcaqYG83-18" value="" style="rounded=0;whiteSpace=wrap;html=1;" parent="hJbZo1aWGCKEWcaqYG83-36" vertex="1">
                    <mxGeometry x="30" y="80" width="430" height="20" as="geometry"/>
                </mxCell>
                <mxCell id="hJbZo1aWGCKEWcaqYG83-19" value="" style="rounded=0;whiteSpace=wrap;html=1;" parent="hJbZo1aWGCKEWcaqYG83-36" vertex="1">
                    <mxGeometry x="30" y="110" width="430" height="20" as="geometry"/>
                </mxCell>
                <mxCell id="hJbZo1aWGCKEWcaqYG83-20" value="" style="rounded=0;whiteSpace=wrap;html=1;" parent="hJbZo1aWGCKEWcaqYG83-36" vertex="1">
                    <mxGeometry x="30" y="140" width="430" height="20" as="geometry"/>
                </mxCell>
                <mxCell id="hJbZo1aWGCKEWcaqYG83-21" value="" style="rounded=0;whiteSpace=wrap;html=1;" parent="hJbZo1aWGCKEWcaqYG83-36" vertex="1">
                    <mxGeometry x="30" y="170" width="430" height="20" as="geometry"/>
                </mxCell>
                <mxCell id="hJbZo1aWGCKEWcaqYG83-38" value="" style="group" parent="1" vertex="1" connectable="0">
                    <mxGeometry x="200" y="460" width="600" height="180" as="geometry"/>
                </mxCell>
                <mxCell id="hJbZo1aWGCKEWcaqYG83-11" value="" style="rounded=0;whiteSpace=wrap;html=1;strokeColor=#000000;fillColor=#0000CC;" parent="hJbZo1aWGCKEWcaqYG83-38" vertex="1">
                    <mxGeometry width="600" height="180" as="geometry"/>
                </mxCell>
                <mxCell id="hJbZo1aWGCKEWcaqYG83-37" value="" style="group" parent="hJbZo1aWGCKEWcaqYG83-38" vertex="1" connectable="0">
                    <mxGeometry x="84" y="10" width="444.00000000000006" height="160" as="geometry"/>
                </mxCell>
                <mxCell id="hJbZo1aWGCKEWcaqYG83-12" value="" style="rounded=0;whiteSpace=wrap;html=1;strokeColor=#000000;fillColor=#9999FF;" parent="hJbZo1aWGCKEWcaqYG83-37" vertex="1">
                    <mxGeometry width="444.00000000000006" height="160" as="geometry"/>
                </mxCell>
                <mxCell id="hJbZo1aWGCKEWcaqYG83-13" value="" style="endArrow=none;html=1;rounded=0;exitX=1;exitY=0;exitDx=0;exitDy=0;entryX=0;entryY=1;entryDx=0;entryDy=0;" parent="hJbZo1aWGCKEWcaqYG83-37" source="hJbZo1aWGCKEWcaqYG83-12" target="hJbZo1aWGCKEWcaqYG83-12" edge="1">
                    <mxGeometry width="50" height="50" relative="1" as="geometry">
                        <mxPoint x="162" y="130" as="sourcePoint"/>
                        <mxPoint x="282" y="80" as="targetPoint"/>
                    </mxGeometry>
                </mxCell>
                <mxCell id="hJbZo1aWGCKEWcaqYG83-14" value="" style="endArrow=none;html=1;rounded=0;exitX=0;exitY=0;exitDx=0;exitDy=0;entryX=1;entryY=1;entryDx=0;entryDy=0;" parent="hJbZo1aWGCKEWcaqYG83-37" source="hJbZo1aWGCKEWcaqYG83-12" target="hJbZo1aWGCKEWcaqYG83-12" edge="1">
                    <mxGeometry width="50" height="50" relative="1" as="geometry">
                        <mxPoint x="162" y="80" as="sourcePoint"/>
                        <mxPoint x="282" y="130" as="targetPoint"/>
                    </mxGeometry>
                </mxCell>
                <mxCell id="hJbZo1aWGCKEWcaqYG83-42" value="" style="rounded=0;whiteSpace=wrap;html=1;strokeColor=#000000;fillColor=#FFB366;gradientColor=none;" parent="1" vertex="1">
                    <mxGeometry x="250" y="690" width="500" height="130" as="geometry"/>
                </mxCell>
                <mxCell id="hJbZo1aWGCKEWcaqYG83-29" value="" style="rounded=0;whiteSpace=wrap;html=1;strokeColor=#000000;fillColor=#FFFF99;gradientColor=none;" parent="1" vertex="1">
                    <mxGeometry x="270" y="730" width="460" height="70" as="geometry"/>
                </mxCell>
                <mxCell id="hJbZo1aWGCKEWcaqYG83-28" value="" style="rounded=0;whiteSpace=wrap;html=1;strokeColor=#000000;fillColor=#CCFF99;gradientColor=none;" parent="1" vertex="1">
                    <mxGeometry x="320" y="700" width="360" height="20" as="geometry"/>
                </mxCell>
                <mxCell id="hJbZo1aWGCKEWcaqYG83-43" value="" style="rounded=0;whiteSpace=wrap;html=1;strokeColor=#000000;fillColor=#33FFFF;gradientColor=none;" parent="1" vertex="1">
                    <mxGeometry x="200" y="820" width="600" height="120" as="geometry"/>
                </mxCell>
                <mxCell id="hJbZo1aWGCKEWcaqYG83-45" value="" style="group" parent="1" vertex="1" connectable="0">
                    <mxGeometry x="280" y="660" width="20" height="20" as="geometry"/>
                </mxCell>
                <mxCell id="hJbZo1aWGCKEWcaqYG83-24" value="" style="whiteSpace=wrap;html=1;aspect=fixed;strokeColor=#000000;fillColor=#4D4D4D;gradientColor=none;" parent="hJbZo1aWGCKEWcaqYG83-45" vertex="1">
                    <mxGeometry width="20" height="20" as="geometry"/>
                </mxCell>
                <mxCell id="hJbZo1aWGCKEWcaqYG83-26" value="" style="endArrow=none;html=1;rounded=0;entryX=0;entryY=0;entryDx=0;entryDy=0;exitX=0;exitY=1;exitDx=0;exitDy=0;" parent="hJbZo1aWGCKEWcaqYG83-45" source="hJbZo1aWGCKEWcaqYG83-24" target="hJbZo1aWGCKEWcaqYG83-25" edge="1">
                    <mxGeometry width="50" height="50" relative="1" as="geometry">
                        <mxPoint x="-10" y="50" as="sourcePoint"/>
                        <mxPoint x="40" as="targetPoint"/>
                    </mxGeometry>
                </mxCell>
                <mxCell id="hJbZo1aWGCKEWcaqYG83-27" value="" style="endArrow=none;html=1;rounded=0;entryX=0;entryY=1;entryDx=0;entryDy=0;exitX=0;exitY=0;exitDx=0;exitDy=0;" parent="hJbZo1aWGCKEWcaqYG83-45" source="hJbZo1aWGCKEWcaqYG83-24" target="hJbZo1aWGCKEWcaqYG83-25" edge="1">
                    <mxGeometry width="50" height="50" relative="1" as="geometry">
                        <mxPoint x="10" y="30" as="sourcePoint"/>
                        <mxPoint x="30.000000000000114" y="10" as="targetPoint"/>
                    </mxGeometry>
                </mxCell>
                <mxCell id="hJbZo1aWGCKEWcaqYG83-71" value="" style="group" parent="1" vertex="1" connectable="0">
                    <mxGeometry x="200" y="835" width="250" height="85" as="geometry"/>
                </mxCell>
                <mxCell id="hJbZo1aWGCKEWcaqYG83-66" value="" style="rounded=0;whiteSpace=wrap;html=1;strokeColor=#000000;fillColor=#99FFFF;gradientColor=none;" parent="hJbZo1aWGCKEWcaqYG83-71" vertex="1">
                    <mxGeometry width="130" height="85" as="geometry"/>
                </mxCell>
                <mxCell id="hJbZo1aWGCKEWcaqYG83-69" value="" style="endArrow=none;html=1;rounded=0;exitX=0;exitY=1;exitDx=0;exitDy=0;entryX=1;entryY=0;entryDx=0;entryDy=0;" parent="hJbZo1aWGCKEWcaqYG83-71" source="hJbZo1aWGCKEWcaqYG83-66" target="hJbZo1aWGCKEWcaqYG83-66" edge="1">
                    <mxGeometry width="50" height="50" relative="1" as="geometry">
                        <mxPoint x="30" y="75" as="sourcePoint"/>
                        <mxPoint x="80" y="25" as="targetPoint"/>
                    </mxGeometry>
                </mxCell>
                <mxCell id="hJbZo1aWGCKEWcaqYG83-70" value="" style="endArrow=none;html=1;rounded=0;exitX=0;exitY=0;exitDx=0;exitDy=0;entryX=1;entryY=1;entryDx=0;entryDy=0;" parent="hJbZo1aWGCKEWcaqYG83-71" source="hJbZo1aWGCKEWcaqYG83-66" target="hJbZo1aWGCKEWcaqYG83-66" edge="1">
                    <mxGeometry width="50" height="50" relative="1" as="geometry">
                        <mxPoint x="10" y="95" as="sourcePoint"/>
                        <mxPoint x="140" y="10" as="targetPoint"/>
                    </mxGeometry>
                </mxCell>
                <mxCell id="hJbZo1aWGCKEWcaqYG83-72" value="" style="group" parent="hJbZo1aWGCKEWcaqYG83-71" vertex="1" connectable="0">
                    <mxGeometry x="130" width="120" height="85" as="geometry"/>
                </mxCell>
                <mxCell id="hJbZo1aWGCKEWcaqYG83-73" value="" style="rounded=0;whiteSpace=wrap;html=1;strokeColor=#000000;fillColor=#99FFFF;gradientColor=none;" parent="hJbZo1aWGCKEWcaqYG83-72" vertex="1">
                    <mxGeometry width="120" height="85" as="geometry"/>
                </mxCell>
                <mxCell id="hJbZo1aWGCKEWcaqYG83-74" value="" style="endArrow=none;html=1;rounded=0;exitX=0;exitY=1;exitDx=0;exitDy=0;entryX=1;entryY=0;entryDx=0;entryDy=0;" parent="hJbZo1aWGCKEWcaqYG83-72" source="hJbZo1aWGCKEWcaqYG83-73" target="hJbZo1aWGCKEWcaqYG83-73" edge="1">
                    <mxGeometry width="50" height="50" relative="1" as="geometry">
                        <mxPoint x="27.692307692307693" y="75" as="sourcePoint"/>
                        <mxPoint x="73.84615384615385" y="25" as="targetPoint"/>
                    </mxGeometry>
                </mxCell>
                <mxCell id="hJbZo1aWGCKEWcaqYG83-75" value="" style="endArrow=none;html=1;rounded=0;exitX=0;exitY=0;exitDx=0;exitDy=0;entryX=1;entryY=1;entryDx=0;entryDy=0;" parent="hJbZo1aWGCKEWcaqYG83-72" source="hJbZo1aWGCKEWcaqYG83-73" target="hJbZo1aWGCKEWcaqYG83-73" edge="1">
                    <mxGeometry width="50" height="50" relative="1" as="geometry">
                        <mxPoint x="9.230769230769232" y="95" as="sourcePoint"/>
                        <mxPoint x="129.23076923076923" y="10" as="targetPoint"/>
                    </mxGeometry>
                </mxCell>
                <mxCell id="hJbZo1aWGCKEWcaqYG83-84" value="" style="group" parent="hJbZo1aWGCKEWcaqYG83-71" vertex="1" connectable="0">
                    <mxGeometry x="10" y="17.5" width="50" height="50" as="geometry"/>
                </mxCell>
                <mxCell id="hJbZo1aWGCKEWcaqYG83-85" value="" style="whiteSpace=wrap;html=1;aspect=fixed;strokeColor=#000000;fillColor=#4D4D4D;gradientColor=none;" parent="hJbZo1aWGCKEWcaqYG83-84" vertex="1">
                    <mxGeometry width="50" height="50" as="geometry"/>
                </mxCell>
                <mxCell id="hJbZo1aWGCKEWcaqYG83-86" value="" style="endArrow=none;html=1;rounded=0;" parent="hJbZo1aWGCKEWcaqYG83-84" edge="1">
                    <mxGeometry width="50" height="50" relative="1" as="geometry">
                        <mxPoint y="50" as="sourcePoint"/>
                        <mxPoint x="50" as="targetPoint"/>
                    </mxGeometry>
                </mxCell>
                <mxCell id="hJbZo1aWGCKEWcaqYG83-87" value="" style="endArrow=none;html=1;rounded=0;exitX=0;exitY=0;exitDx=0;exitDy=0;entryX=1;entryY=1;entryDx=0;entryDy=0;" parent="hJbZo1aWGCKEWcaqYG83-84" source="hJbZo1aWGCKEWcaqYG83-85" target="hJbZo1aWGCKEWcaqYG83-85" edge="1">
                    <mxGeometry width="50" height="50" relative="1" as="geometry">
                        <mxPoint x="10" y="60" as="sourcePoint"/>
                        <mxPoint x="60" y="10" as="targetPoint"/>
                    </mxGeometry>
                </mxCell>
                <mxCell id="hJbZo1aWGCKEWcaqYG83-76" value="" style="group" parent="1" vertex="1" connectable="0">
                    <mxGeometry x="450" y="835" width="130" height="85" as="geometry"/>
                </mxCell>
                <mxCell id="hJbZo1aWGCKEWcaqYG83-77" value="" style="rounded=0;whiteSpace=wrap;html=1;strokeColor=#000000;fillColor=#99FFFF;gradientColor=none;" parent="hJbZo1aWGCKEWcaqYG83-76" vertex="1">
                    <mxGeometry width="130" height="85" as="geometry"/>
                </mxCell>
                <mxCell id="hJbZo1aWGCKEWcaqYG83-78" value="" style="endArrow=none;html=1;rounded=0;exitX=0;exitY=1;exitDx=0;exitDy=0;entryX=1;entryY=0;entryDx=0;entryDy=0;" parent="hJbZo1aWGCKEWcaqYG83-76" source="hJbZo1aWGCKEWcaqYG83-77" target="hJbZo1aWGCKEWcaqYG83-77" edge="1">
                    <mxGeometry width="50" height="50" relative="1" as="geometry">
                        <mxPoint x="30" y="75" as="sourcePoint"/>
                        <mxPoint x="80" y="25" as="targetPoint"/>
                    </mxGeometry>
                </mxCell>
                <mxCell id="hJbZo1aWGCKEWcaqYG83-79" value="" style="endArrow=none;html=1;rounded=0;exitX=0;exitY=0;exitDx=0;exitDy=0;entryX=1;entryY=1;entryDx=0;entryDy=0;" parent="hJbZo1aWGCKEWcaqYG83-76" source="hJbZo1aWGCKEWcaqYG83-77" target="hJbZo1aWGCKEWcaqYG83-77" edge="1">
                    <mxGeometry width="50" height="50" relative="1" as="geometry">
                        <mxPoint x="10" y="95" as="sourcePoint"/>
                        <mxPoint x="139.99999999999997" y="10" as="targetPoint"/>
                    </mxGeometry>
                </mxCell>
                <mxCell id="hJbZo1aWGCKEWcaqYG83-80" value="" style="group" parent="1" vertex="1" connectable="0">
                    <mxGeometry x="580" y="835" width="220" height="85" as="geometry"/>
                </mxCell>
                <mxCell id="hJbZo1aWGCKEWcaqYG83-81" value="" style="rounded=0;whiteSpace=wrap;html=1;strokeColor=#000000;fillColor=#99FFFF;gradientColor=none;" parent="hJbZo1aWGCKEWcaqYG83-80" vertex="1">
                    <mxGeometry width="110" height="85" as="geometry"/>
                </mxCell>
                <mxCell id="hJbZo1aWGCKEWcaqYG83-82" value="" style="endArrow=none;html=1;rounded=0;exitX=0;exitY=1;exitDx=0;exitDy=0;entryX=1;entryY=0;entryDx=0;entryDy=0;" parent="hJbZo1aWGCKEWcaqYG83-80" source="hJbZo1aWGCKEWcaqYG83-81" target="hJbZo1aWGCKEWcaqYG83-81" edge="1">
                    <mxGeometry width="50" height="50" relative="1" as="geometry">
                        <mxPoint x="27.692307692307693" y="75" as="sourcePoint"/>
                        <mxPoint x="73.84615384615385" y="25" as="targetPoint"/>
                    </mxGeometry>
                </mxCell>
                <mxCell id="hJbZo1aWGCKEWcaqYG83-83" value="" style="endArrow=none;html=1;rounded=0;exitX=0;exitY=0;exitDx=0;exitDy=0;entryX=1;entryY=1;entryDx=0;entryDy=0;" parent="hJbZo1aWGCKEWcaqYG83-80" source="hJbZo1aWGCKEWcaqYG83-81" target="hJbZo1aWGCKEWcaqYG83-81" edge="1">
                    <mxGeometry width="50" height="50" relative="1" as="geometry">
                        <mxPoint x="9.230769230769232" y="95" as="sourcePoint"/>
                        <mxPoint x="129.23076923076923" y="10" as="targetPoint"/>
                    </mxGeometry>
                </mxCell>
                <mxCell id="hJbZo1aWGCKEWcaqYG83-95" value="" style="group" parent="hJbZo1aWGCKEWcaqYG83-80" vertex="1" connectable="0">
                    <mxGeometry x="110" width="110" height="85" as="geometry"/>
                </mxCell>
                <mxCell id="hJbZo1aWGCKEWcaqYG83-96" value="" style="rounded=0;whiteSpace=wrap;html=1;strokeColor=#000000;fillColor=#99FFFF;gradientColor=none;" parent="hJbZo1aWGCKEWcaqYG83-95" vertex="1">
                    <mxGeometry width="110" height="85" as="geometry"/>
                </mxCell>
                <mxCell id="hJbZo1aWGCKEWcaqYG83-97" value="" style="endArrow=none;html=1;rounded=0;exitX=0;exitY=1;exitDx=0;exitDy=0;entryX=1;entryY=0;entryDx=0;entryDy=0;" parent="hJbZo1aWGCKEWcaqYG83-95" source="hJbZo1aWGCKEWcaqYG83-96" target="hJbZo1aWGCKEWcaqYG83-96" edge="1">
                    <mxGeometry width="50" height="50" relative="1" as="geometry">
                        <mxPoint x="25.384615384615383" y="75" as="sourcePoint"/>
                        <mxPoint x="67.6923076923077" y="25" as="targetPoint"/>
                    </mxGeometry>
                </mxCell>
                <mxCell id="hJbZo1aWGCKEWcaqYG83-98" value="" style="endArrow=none;html=1;rounded=0;exitX=0;exitY=0;exitDx=0;exitDy=0;entryX=1;entryY=1;entryDx=0;entryDy=0;" parent="hJbZo1aWGCKEWcaqYG83-95" source="hJbZo1aWGCKEWcaqYG83-96" target="hJbZo1aWGCKEWcaqYG83-96" edge="1">
                    <mxGeometry width="50" height="50" relative="1" as="geometry">
                        <mxPoint x="8.461538461538462" y="95" as="sourcePoint"/>
                        <mxPoint x="118.46153846153845" y="10" as="targetPoint"/>
                    </mxGeometry>
                </mxCell>
                <mxCell id="hJbZo1aWGCKEWcaqYG83-103" value="" style="group" parent="hJbZo1aWGCKEWcaqYG83-95" vertex="1" connectable="0">
                    <mxGeometry x="50" y="17.5" width="50" height="50" as="geometry"/>
                </mxCell>
                <mxCell id="hJbZo1aWGCKEWcaqYG83-104" value="" style="whiteSpace=wrap;html=1;aspect=fixed;strokeColor=#000000;fillColor=#4D4D4D;gradientColor=none;" parent="hJbZo1aWGCKEWcaqYG83-103" vertex="1">
                    <mxGeometry width="50" height="50" as="geometry"/>
                </mxCell>
                <mxCell id="hJbZo1aWGCKEWcaqYG83-105" value="" style="endArrow=none;html=1;rounded=0;" parent="hJbZo1aWGCKEWcaqYG83-103" edge="1">
                    <mxGeometry width="50" height="50" relative="1" as="geometry">
                        <mxPoint y="50" as="sourcePoint"/>
                        <mxPoint x="50" as="targetPoint"/>
                    </mxGeometry>
                </mxCell>
                <mxCell id="hJbZo1aWGCKEWcaqYG83-106" value="" style="endArrow=none;html=1;rounded=0;exitX=0;exitY=0;exitDx=0;exitDy=0;entryX=1;entryY=1;entryDx=0;entryDy=0;" parent="hJbZo1aWGCKEWcaqYG83-103" source="hJbZo1aWGCKEWcaqYG83-104" target="hJbZo1aWGCKEWcaqYG83-104" edge="1">
                    <mxGeometry width="50" height="50" relative="1" as="geometry">
                        <mxPoint x="10" y="60" as="sourcePoint"/>
                        <mxPoint x="60" y="10" as="targetPoint"/>
                    </mxGeometry>
                </mxCell>
                <mxCell id="hJbZo1aWGCKEWcaqYG83-94" value="" style="rounded=0;whiteSpace=wrap;html=1;strokeColor=#000000;fillColor=#FF0000;gradientColor=none;" parent="1" vertex="1">
                    <mxGeometry x="250" y="940" width="500" height="150" as="geometry"/>
                </mxCell>
                <mxCell id="hJbZo1aWGCKEWcaqYG83-119" value="" style="group" parent="1" vertex="1" connectable="0">
                    <mxGeometry x="300" y="950" width="150" height="100" as="geometry"/>
                </mxCell>
                <mxCell id="hJbZo1aWGCKEWcaqYG83-110" value="" style="rounded=0;whiteSpace=wrap;html=1;strokeColor=#000000;fillColor=#FF99CC;gradientColor=none;" parent="hJbZo1aWGCKEWcaqYG83-119" vertex="1">
                    <mxGeometry width="150" height="100" as="geometry"/>
                </mxCell>
                <mxCell id="hJbZo1aWGCKEWcaqYG83-117" value="" style="endArrow=none;html=1;rounded=0;entryX=1;entryY=1;entryDx=0;entryDy=0;exitX=0;exitY=0;exitDx=0;exitDy=0;" parent="hJbZo1aWGCKEWcaqYG83-119" source="hJbZo1aWGCKEWcaqYG83-110" target="hJbZo1aWGCKEWcaqYG83-110" edge="1">
                    <mxGeometry width="50" height="50" relative="1" as="geometry">
                        <mxPoint x="260" y="10" as="sourcePoint"/>
                        <mxPoint x="410" y="110" as="targetPoint"/>
                    </mxGeometry>
                </mxCell>
                <mxCell id="hJbZo1aWGCKEWcaqYG83-118" value="" style="endArrow=none;html=1;rounded=0;entryX=1;entryY=0;entryDx=0;entryDy=0;exitX=0;exitY=1;exitDx=0;exitDy=0;" parent="hJbZo1aWGCKEWcaqYG83-119" source="hJbZo1aWGCKEWcaqYG83-110" target="hJbZo1aWGCKEWcaqYG83-110" edge="1">
                    <mxGeometry width="50" height="50" relative="1" as="geometry">
                        <mxPoint x="260" y="110" as="sourcePoint"/>
                        <mxPoint x="410" y="10" as="targetPoint"/>
                    </mxGeometry>
                </mxCell>
                <mxCell id="hJbZo1aWGCKEWcaqYG83-120" value="" style="group" parent="1" vertex="1" connectable="0">
                    <mxGeometry x="550" y="950" width="150" height="100" as="geometry"/>
                </mxCell>
                <mxCell id="hJbZo1aWGCKEWcaqYG83-109" value="" style="rounded=0;whiteSpace=wrap;html=1;strokeColor=#000000;fillColor=#FF99CC;gradientColor=none;" parent="hJbZo1aWGCKEWcaqYG83-120" vertex="1">
                    <mxGeometry width="150" height="100" as="geometry"/>
                </mxCell>
                <mxCell id="hJbZo1aWGCKEWcaqYG83-114" value="" style="endArrow=none;html=1;rounded=0;entryX=1;entryY=0;entryDx=0;entryDy=0;exitX=0;exitY=1;exitDx=0;exitDy=0;" parent="hJbZo1aWGCKEWcaqYG83-120" source="hJbZo1aWGCKEWcaqYG83-109" edge="1">
                    <mxGeometry width="50" height="50" relative="1" as="geometry">
                        <mxPoint y="100" as="sourcePoint"/>
                        <mxPoint x="150" as="targetPoint"/>
                    </mxGeometry>
                </mxCell>
                <mxCell id="hJbZo1aWGCKEWcaqYG83-116" value="" style="endArrow=none;html=1;rounded=0;entryX=1;entryY=1;entryDx=0;entryDy=0;exitX=0;exitY=0;exitDx=0;exitDy=0;" parent="hJbZo1aWGCKEWcaqYG83-120" source="hJbZo1aWGCKEWcaqYG83-109" target="hJbZo1aWGCKEWcaqYG83-109" edge="1">
                    <mxGeometry width="50" height="50" relative="1" as="geometry">
                        <mxPoint x="-115" y="40" as="sourcePoint"/>
                        <mxPoint x="35" y="140" as="targetPoint"/>
                    </mxGeometry>
                </mxCell>
                <mxCell id="hJbZo1aWGCKEWcaqYG83-122" value="" style="group" parent="1" vertex="1" connectable="0">
                    <mxGeometry x="425" y="980" width="150" height="100" as="geometry"/>
                </mxCell>
                <mxCell id="hJbZo1aWGCKEWcaqYG83-108" value="" style="rounded=0;whiteSpace=wrap;html=1;strokeColor=#000000;fillColor=#FF99CC;gradientColor=none;" parent="hJbZo1aWGCKEWcaqYG83-122" vertex="1">
                    <mxGeometry width="150" height="100" as="geometry"/>
                </mxCell>
                <mxCell id="hJbZo1aWGCKEWcaqYG83-113" value="" style="endArrow=none;html=1;rounded=0;entryX=1;entryY=0;entryDx=0;entryDy=0;exitX=0;exitY=1;exitDx=0;exitDy=0;" parent="hJbZo1aWGCKEWcaqYG83-122" source="hJbZo1aWGCKEWcaqYG83-108" target="hJbZo1aWGCKEWcaqYG83-108" edge="1">
                    <mxGeometry width="50" height="50" relative="1" as="geometry">
                        <mxPoint x="55" y="90" as="sourcePoint"/>
                        <mxPoint x="105" y="40" as="targetPoint"/>
                    </mxGeometry>
                </mxCell>
                <mxCell id="hJbZo1aWGCKEWcaqYG83-115" value="" style="endArrow=none;html=1;rounded=0;entryX=1;entryY=1;entryDx=0;entryDy=0;exitX=0;exitY=0;exitDx=0;exitDy=0;" parent="hJbZo1aWGCKEWcaqYG83-122" source="hJbZo1aWGCKEWcaqYG83-108" target="hJbZo1aWGCKEWcaqYG83-108" edge="1">
                    <mxGeometry width="50" height="50" relative="1" as="geometry">
                        <mxPoint x="10" y="110" as="sourcePoint"/>
                        <mxPoint x="160" y="10" as="targetPoint"/>
                    </mxGeometry>
                </mxCell>
                <mxCell id="hJbZo1aWGCKEWcaqYG83-123" value="" style="rounded=0;whiteSpace=wrap;html=1;strokeColor=#000000;fillColor=#66B2FF;gradientColor=none;" parent="1" vertex="1">
                    <mxGeometry x="250" y="1090" width="500" height="50" as="geometry"/>
                </mxCell>
                <mxCell id="hJbZo1aWGCKEWcaqYG83-124" value="" style="rounded=0;whiteSpace=wrap;html=1;" parent="1" vertex="1">
                    <mxGeometry x="260" y="1105" width="70" height="20" as="geometry"/>
                </mxCell>
                <mxCell id="hJbZo1aWGCKEWcaqYG83-125" value="" style="rounded=0;whiteSpace=wrap;html=1;" parent="1" vertex="1">
                    <mxGeometry x="500" y="1105" width="80" height="20" as="geometry"/>
                </mxCell>
                <mxCell id="hJbZo1aWGCKEWcaqYG83-126" value="" style="rounded=0;whiteSpace=wrap;html=1;fillColor=#CCFF99;" parent="1" vertex="1">
                    <mxGeometry x="340" y="1105" width="150" height="20" as="geometry"/>
                </mxCell>
                <mxCell id="hJbZo1aWGCKEWcaqYG83-127" value="" style="rounded=0;whiteSpace=wrap;html=1;fillColor=#CCFF99;" parent="1" vertex="1">
                    <mxGeometry x="590" y="1105" width="150" height="20" as="geometry"/>
                </mxCell>
                <mxCell id="hJbZo1aWGCKEWcaqYG83-129" value="" style="rounded=0;whiteSpace=wrap;html=1;strokeColor=#000000;fillColor=#CCFF99;gradientColor=none;" parent="1" vertex="1">
                    <mxGeometry x="440" y="1149" width="120" height="20" as="geometry"/>
                </mxCell>
                <mxCell id="2" value="Creador: Manuel SolÃ­s GÃ³mez" style="text;html=1;align=center;verticalAlign=middle;resizable=0;points=[];autosize=1;strokeColor=none;" vertex="1" parent="1">
                    <mxGeometry x="30" y="50" width="180" height="20" as="geometry"/>
                </mxCell>
            </root>
        </mxGraphModel>
    </diagram>
</mxfile>